<mxfile host="app.diagrams.net" agent="Mozilla/5.0 (Windows NT 10.0; Win64; x64) AppleWebKit/537.36 (KHTML, like Gecko) Chrome/130.0.0.0 Safari/537.36" version="24.8.4">
  <diagram name="Страница — 1" id="M3Y_McAyLe1ry4c8g4-7">
    <mxGraphModel dx="1195" dy="622" grid="1" gridSize="10" guides="1" tooltips="1" connect="1" arrows="1" fold="1" page="1" pageScale="1" pageWidth="1169" pageHeight="1654" math="0" shadow="0">
      <root>
        <mxCell id="0" />
        <mxCell id="1" parent="0" />
        <mxCell id="kHy_Sm8ghvmxV_8cxAgd-2" value="" style="ellipse;html=1;shape=endState;fillColor=strokeColor;" parent="1" vertex="1">
          <mxGeometry x="785" y="730" width="30" height="30" as="geometry" />
        </mxCell>
        <mxCell id="kHy_Sm8ghvmxV_8cxAgd-5" style="edgeStyle=orthogonalEdgeStyle;rounded=0;orthogonalLoop=1;jettySize=auto;html=1;entryX=0;entryY=0.5;entryDx=0;entryDy=0;" parent="1" source="kHy_Sm8ghvmxV_8cxAgd-3" target="kHy_Sm8ghvmxV_8cxAgd-4" edge="1">
          <mxGeometry relative="1" as="geometry" />
        </mxCell>
        <mxCell id="kHy_Sm8ghvmxV_8cxAgd-3" value="" style="ellipse;fillColor=strokeColor;html=1;" parent="1" vertex="1">
          <mxGeometry x="150" y="270" width="30" height="30" as="geometry" />
        </mxCell>
        <mxCell id="kHy_Sm8ghvmxV_8cxAgd-4" value="Новый заказ" style="rounded=1;whiteSpace=wrap;html=1;" parent="1" vertex="1">
          <mxGeometry x="280" y="255" width="120" height="60" as="geometry" />
        </mxCell>
        <mxCell id="kHy_Sm8ghvmxV_8cxAgd-6" value="Пользователь создает заказ" style="text;html=1;align=center;verticalAlign=middle;whiteSpace=wrap;rounded=0;" parent="1" vertex="1">
          <mxGeometry x="190" y="259" width="83" height="20" as="geometry" />
        </mxCell>
        <mxCell id="sUVrNmLWs0wr9uufxFR3-5" style="edgeStyle=orthogonalEdgeStyle;rounded=0;orthogonalLoop=1;jettySize=auto;html=1;" edge="1" parent="1" source="kHy_Sm8ghvmxV_8cxAgd-7" target="sUVrNmLWs0wr9uufxFR3-4">
          <mxGeometry relative="1" as="geometry" />
        </mxCell>
        <mxCell id="kHy_Sm8ghvmxV_8cxAgd-7" value="Заказ в работе" style="rounded=1;whiteSpace=wrap;html=1;" parent="1" vertex="1">
          <mxGeometry x="525" y="255" width="120" height="60" as="geometry" />
        </mxCell>
        <mxCell id="kHy_Sm8ghvmxV_8cxAgd-8" style="edgeStyle=orthogonalEdgeStyle;rounded=0;orthogonalLoop=1;jettySize=auto;html=1;exitX=1;exitY=0.5;exitDx=0;exitDy=0;entryX=0;entryY=0.5;entryDx=0;entryDy=0;" parent="1" source="kHy_Sm8ghvmxV_8cxAgd-4" target="kHy_Sm8ghvmxV_8cxAgd-7" edge="1">
          <mxGeometry relative="1" as="geometry">
            <mxPoint x="410" y="284.66" as="sourcePoint" />
            <mxPoint x="520" y="285" as="targetPoint" />
          </mxGeometry>
        </mxCell>
        <mxCell id="kHy_Sm8ghvmxV_8cxAgd-9" value="Менеджер&amp;nbsp; принимает заказ в работу" style="text;html=1;align=center;verticalAlign=middle;whiteSpace=wrap;rounded=0;" parent="1" vertex="1">
          <mxGeometry x="418" y="252" width="90" height="20" as="geometry" />
        </mxCell>
        <mxCell id="kHy_Sm8ghvmxV_8cxAgd-10" style="edgeStyle=orthogonalEdgeStyle;rounded=0;orthogonalLoop=1;jettySize=auto;html=1;exitX=0.5;exitY=1;exitDx=0;exitDy=0;entryX=0.5;entryY=0;entryDx=0;entryDy=0;" parent="1" source="kHy_Sm8ghvmxV_8cxAgd-4" target="kHy_Sm8ghvmxV_8cxAgd-11" edge="1">
          <mxGeometry relative="1" as="geometry">
            <mxPoint x="350" y="410" as="sourcePoint" />
            <mxPoint x="340" y="350" as="targetPoint" />
          </mxGeometry>
        </mxCell>
        <mxCell id="kHy_Sm8ghvmxV_8cxAgd-15" style="edgeStyle=orthogonalEdgeStyle;rounded=0;orthogonalLoop=1;jettySize=auto;html=1;" parent="1" source="kHy_Sm8ghvmxV_8cxAgd-11" target="kHy_Sm8ghvmxV_8cxAgd-14" edge="1">
          <mxGeometry relative="1" as="geometry" />
        </mxCell>
        <mxCell id="kHy_Sm8ghvmxV_8cxAgd-30" style="edgeStyle=orthogonalEdgeStyle;rounded=0;orthogonalLoop=1;jettySize=auto;html=1;entryX=0;entryY=0.5;entryDx=0;entryDy=0;" parent="1" source="kHy_Sm8ghvmxV_8cxAgd-11" target="kHy_Sm8ghvmxV_8cxAgd-7" edge="1">
          <mxGeometry relative="1" as="geometry">
            <Array as="points">
              <mxPoint x="470" y="410" />
              <mxPoint x="470" y="285" />
            </Array>
          </mxGeometry>
        </mxCell>
        <mxCell id="kHy_Sm8ghvmxV_8cxAgd-11" value="Заказ отложен" style="rounded=1;whiteSpace=wrap;html=1;" parent="1" vertex="1">
          <mxGeometry x="280" y="380" width="120" height="60" as="geometry" />
        </mxCell>
        <mxCell id="kHy_Sm8ghvmxV_8cxAgd-12" value="Менеджер откладывает заказ в связи с недостатком товаров" style="text;html=1;align=center;verticalAlign=middle;whiteSpace=wrap;rounded=0;fillColor=default;" parent="1" vertex="1">
          <mxGeometry x="254" y="330" width="180" height="30" as="geometry" />
        </mxCell>
        <mxCell id="kHy_Sm8ghvmxV_8cxAgd-18" style="edgeStyle=orthogonalEdgeStyle;rounded=0;orthogonalLoop=1;jettySize=auto;html=1;" parent="1" source="kHy_Sm8ghvmxV_8cxAgd-14" target="kHy_Sm8ghvmxV_8cxAgd-17" edge="1">
          <mxGeometry relative="1" as="geometry" />
        </mxCell>
        <mxCell id="kHy_Sm8ghvmxV_8cxAgd-14" value="Заказ отменен" style="rounded=1;whiteSpace=wrap;html=1;" parent="1" vertex="1">
          <mxGeometry x="280" y="510" width="120" height="60" as="geometry" />
        </mxCell>
        <mxCell id="kHy_Sm8ghvmxV_8cxAgd-16" value="Пользователь сообщает что хочет отменить заказ" style="text;html=1;align=center;verticalAlign=middle;whiteSpace=wrap;rounded=0;fillColor=default;" parent="1" vertex="1">
          <mxGeometry x="250" y="450" width="180" height="30" as="geometry" />
        </mxCell>
        <mxCell id="kHy_Sm8ghvmxV_8cxAgd-17" value="" style="shape=umlDestroy;html=1;" parent="1" vertex="1">
          <mxGeometry x="325" y="640" width="30" height="30" as="geometry" />
        </mxCell>
        <mxCell id="sUVrNmLWs0wr9uufxFR3-15" style="edgeStyle=orthogonalEdgeStyle;rounded=0;orthogonalLoop=1;jettySize=auto;html=1;entryX=0.5;entryY=0;entryDx=0;entryDy=0;" edge="1" parent="1" source="kHy_Sm8ghvmxV_8cxAgd-25" target="kHy_Sm8ghvmxV_8cxAgd-2">
          <mxGeometry relative="1" as="geometry" />
        </mxCell>
        <mxCell id="kHy_Sm8ghvmxV_8cxAgd-25" value="Продажа" style="rounded=1;whiteSpace=wrap;html=1;" parent="1" vertex="1">
          <mxGeometry x="740" y="638" width="120" height="60" as="geometry" />
        </mxCell>
        <mxCell id="kHy_Sm8ghvmxV_8cxAgd-31" value="Клиент готов ждать поставки товаров" style="text;html=1;align=center;verticalAlign=middle;whiteSpace=wrap;rounded=0;fillColor=default;" parent="1" vertex="1">
          <mxGeometry x="418" y="360" width="105" height="40" as="geometry" />
        </mxCell>
        <mxCell id="sUVrNmLWs0wr9uufxFR3-3" value="Товар оказывается с браком, заказ отменяется" style="text;html=1;align=center;verticalAlign=middle;whiteSpace=wrap;rounded=0;fillColor=default;" vertex="1" parent="1">
          <mxGeometry x="434" y="490" width="130" height="50" as="geometry" />
        </mxCell>
        <mxCell id="sUVrNmLWs0wr9uufxFR3-4" value="Заказ в пути" style="rounded=1;whiteSpace=wrap;html=1;" vertex="1" parent="1">
          <mxGeometry x="740" y="255" width="120" height="60" as="geometry" />
        </mxCell>
        <mxCell id="sUVrNmLWs0wr9uufxFR3-6" value="Заказ собирается" style="text;html=1;align=center;verticalAlign=middle;whiteSpace=wrap;rounded=0;fillColor=default;" vertex="1" parent="1">
          <mxGeometry x="650" y="259" width="90" height="20" as="geometry" />
        </mxCell>
        <mxCell id="sUVrNmLWs0wr9uufxFR3-12" style="edgeStyle=orthogonalEdgeStyle;rounded=0;orthogonalLoop=1;jettySize=auto;html=1;" edge="1" parent="1" source="sUVrNmLWs0wr9uufxFR3-7" target="sUVrNmLWs0wr9uufxFR3-10">
          <mxGeometry relative="1" as="geometry" />
        </mxCell>
        <mxCell id="sUVrNmLWs0wr9uufxFR3-16" style="edgeStyle=orthogonalEdgeStyle;rounded=0;orthogonalLoop=1;jettySize=auto;html=1;entryX=1;entryY=0.5;entryDx=0;entryDy=0;" edge="1" parent="1" source="sUVrNmLWs0wr9uufxFR3-7" target="kHy_Sm8ghvmxV_8cxAgd-14">
          <mxGeometry relative="1" as="geometry" />
        </mxCell>
        <mxCell id="sUVrNmLWs0wr9uufxFR3-7" value="Принят клиентом" style="rounded=1;whiteSpace=wrap;html=1;" vertex="1" parent="1">
          <mxGeometry x="740" y="380" width="120" height="60" as="geometry" />
        </mxCell>
        <mxCell id="sUVrNmLWs0wr9uufxFR3-8" style="edgeStyle=orthogonalEdgeStyle;rounded=0;orthogonalLoop=1;jettySize=auto;html=1;exitX=0.5;exitY=1;exitDx=0;exitDy=0;entryX=0.5;entryY=0;entryDx=0;entryDy=0;" edge="1" parent="1" source="sUVrNmLWs0wr9uufxFR3-4" target="sUVrNmLWs0wr9uufxFR3-7">
          <mxGeometry relative="1" as="geometry">
            <mxPoint x="629.66" y="445" as="sourcePoint" />
            <mxPoint x="629.66" y="510" as="targetPoint" />
          </mxGeometry>
        </mxCell>
        <mxCell id="sUVrNmLWs0wr9uufxFR3-9" value="Заказ доставляется клиенту" style="text;html=1;align=center;verticalAlign=middle;whiteSpace=wrap;rounded=0;fillColor=default;" vertex="1" parent="1">
          <mxGeometry x="730" y="325" width="140" height="30" as="geometry" />
        </mxCell>
        <mxCell id="sUVrNmLWs0wr9uufxFR3-13" style="edgeStyle=orthogonalEdgeStyle;rounded=0;orthogonalLoop=1;jettySize=auto;html=1;entryX=0.5;entryY=0;entryDx=0;entryDy=0;" edge="1" parent="1" source="sUVrNmLWs0wr9uufxFR3-10" target="kHy_Sm8ghvmxV_8cxAgd-25">
          <mxGeometry relative="1" as="geometry" />
        </mxCell>
        <mxCell id="sUVrNmLWs0wr9uufxFR3-10" value="Заказ завершен" style="rounded=1;whiteSpace=wrap;html=1;" vertex="1" parent="1">
          <mxGeometry x="740" y="510" width="120" height="60" as="geometry" />
        </mxCell>
        <mxCell id="sUVrNmLWs0wr9uufxFR3-11" value="Клиент оплачивает заказ" style="text;html=1;align=center;verticalAlign=middle;whiteSpace=wrap;rounded=0;fillColor=default;" vertex="1" parent="1">
          <mxGeometry x="730" y="460" width="140" height="30" as="geometry" />
        </mxCell>
        <mxCell id="sUVrNmLWs0wr9uufxFR3-14" value="Данные о заказе собираются и формируется продажа" style="text;html=1;align=center;verticalAlign=middle;whiteSpace=wrap;rounded=0;fillColor=default;" vertex="1" parent="1">
          <mxGeometry x="667.5" y="590" width="175" height="30" as="geometry" />
        </mxCell>
      </root>
    </mxGraphModel>
  </diagram>
</mxfile>
